<?xml version="1.0" standalone="no"?><!DOCTYPE svg PUBLIC "-//W3C//DTD SVG 1.1//EN" "http://www.w3.org/Graphics/SVG/1.1/DTD/svg11.dtd"><svg t="1596974279282" class="icon" viewBox="0 0 1024 1024" version="1.1" xmlns="http://www.w3.org/2000/svg" p-id="4045" xmlns:xlink="http://www.w3.org/1999/xlink" width="200" height="200"><defs><style type="text/css"></style></defs><path d="M938.6969 442.404226C939.296895 198.705996 749.898272 0.707435 515.599974 0.00744H512C277.701702-1.39255 86.603091 195.006023 85.3031 438.704253v3.699973c0 192.498601 118.599138 356.297411 284.497933 417.796964-90.79934 32.599763-150.198909 94.199316-150.198909 163.79881h572.795839c0-69.699494-55.299598-131.199047-142.098968-163.898809 169.998765-61.299555 288.397905-225.198364 288.397905-417.696965zM520.099941 753.701964h-0.099999c-122.599109 0-225.298363-106.599225-225.298363-233.498304S397.400833 286.705357 519.999942 286.705357c124.199098-0.299998 224.998365 104.199243 225.298363 233.198306v0.199998c-0.199999 129.199061-100.999266 233.698302-225.198364 233.598303z" p-id="4046"></path><path d="M512 417.804404c-59.299569 0-110.499197 53.299613-110.499197 114.599168 0 65.499524 51.299627 114.599167 110.499197 114.599167 60.899558 0 110.299199-51.299627 110.299199-114.599167 0-63.199541-49.399641-114.599167-110.299199-114.599168z" p-id="4047"></path></svg>