<?xml version="1.0" standalone="no"?><!DOCTYPE svg PUBLIC "-//W3C//DTD SVG 1.1//EN" "http://www.w3.org/Graphics/SVG/1.1/DTD/svg11.dtd"><svg t="1597017734193" class="icon" viewBox="0 0 1201 1024" version="1.1" xmlns="http://www.w3.org/2000/svg" p-id="6288" xmlns:xlink="http://www.w3.org/1999/xlink" width="234.5703125" height="200"><defs><style type="text/css"></style></defs><path d="M827.22727 589.974085a30.969407 30.969407 0 0 0-30.886822 30.886822l15.443411 169.863756c0 9.263294 6.180117 15.443411 15.443411 15.443411s15.443411-6.180117 15.443411-15.443411l15.443411-169.863756A30.983171 30.983171 0 0 0 827.22727 589.974085z m0 247.08081a30.886822 30.886822 0 1 0 30.886822 30.886822A30.969407 30.969407 0 0 0 827.22727 837.054895zM1159.260605 898.801011L881.292973 466.426797s-13.901823-30.886822-54.051939-30.886822c-37.053175 0-54.051938 30.886822-54.051938 30.886822L495.235228 898.801011s-7.721705 10.804882-7.721706 30.886822a61.938814 61.938814 0 0 0 61.773644 61.773643H1105.263724a61.938814 61.938814 0 0 0 61.773644-61.773643c0-21.623528-7.721705-30.886822-7.721706-30.886822zM1105.263724 960.588419H549.287166a30.969407 30.969407 0 0 1-30.886822-30.886822c0-6.180117 1.541588-10.804882 1.541588-12.387763l1.541589-1.541588 277.967632-432.36045 1.541589-1.541588s9.263294-15.443411 26.248292-15.443411c18.526587 0 24.775526 12.387763 26.248293 13.901823 0 1.541588 1.541588 1.541588 1.541589 4.638529l277.967632 432.387978 1.541589 1.541588c0 1.541588 1.541588 4.624765 1.541588 12.387763 0 15.443411-13.901823 29.345234-30.886822 29.345233z m0 0" p-id="6289"></path><path d="M429.442443 987.538685a20.894027 20.894027 0 0 0 4.321953-4.445831 74.464219 74.464219 0 0 1-4.321953-21.210602zM665.732136 559.569009l22.02269-34.905963A1469.243723 1469.243723 0 0 0 523.038873 528.46196c-35.78687 1.830636-70.65154 5.698371-93.59643 8.643906v31.010699c101.854938-6.744449 166.147427-9.593634 236.289693-8.547556zM774.923383 389.306092c10.089145-10.391957 27.280606-22.669606 52.303887-22.669606 47.032206 0 63.315232 36.943061 63.315232 36.943061l30.735416 48.835314c0.550567-0.743266 0.880908-1.225012 0.880908-1.225012v-62.048927h12.387763L955.770955 366.127211H647.081671l8.82284 23.178881z" p-id="6290"></path><path d="M429.442443 952.92177v-127.277381h-82.791548c-6.111296 0-9.263294-6.12506-9.263294-9.263293v-61.938814c0-6.12506 6.111296-9.263294 9.263294-9.263294H429.442443v-49.096833c-19.930534 0.784558-40.246465 1.665466-61.126727 2.656487l52.620463-130.057745 8.506264-0.564332v-31.010699c-16.654659 2.133448-27.046615 3.771386-27.046615 3.771385L343.691596 692.613581l-40.218936 37.066939v145.432336L340.539599 915.318028h12.387763v61.938814s6.12506 9.263294 12.387762 12.387763c3.138233 0 37.053175 3.151997 58.73176 0a9.31835 9.31835 0 0 0 5.368031-2.092156v-34.630679zM971.613528 348.935749V206.627883l-40.205173-37.053175L875.649659 17.893435s-61.938814-9.263294-120.615517-12.387763a1471.845153 1471.845153 0 0 0-232.160439 0c-61.938814 3.151997-120.615517 12.387763-120.615517 12.387763l-58.745524 151.502339L303.293725 206.462713v18.526588c49.48223-2.973063 102.08893 0.178934 151.57116 0.178934 61.938814 3.151997 120.615517 12.387763 123.767515 12.387763 12.387763 0 24.775526 9.263294 27.803645 21.678585L647.081671 366.127211h308.689284zM368.32948 172.547771l52.620464-130.071509c185.651272-12.387763 247.535029-12.387763 433.365234 0l52.620464 130.071509c-194.914565-9.277058-343.512662-9.277058-538.606162 0z m563.244045 126.905748h-111.352223c-6.12506 0-12.387763-6.111296-9.263294-9.263294l12.387763-61.938814c0-6.12506 6.12506-9.263294 9.277058-9.263293h99.102102c2.973063 0 9.098124 2.973063 9.098124 9.263293v61.938814c0.027528 6.111296-6.097532 9.263294-9.235765 9.263294zM674.610033 481.966557v-21.678585l-40.205173-34.093876L611.129631 366.127211h-30.171085l25.642669 63.397817c-62.833486-2.986827-120.835744-5.010162-177.145008-6.070004V492.757675c23.935911-2.752836 56.62584-5.780956 90.444433-7.694177 49.468466-3.096941 102.08893-3.096941 154.709393-3.096941z" p-id="6291"></path><path d="M49.468466 649.091241v61.938814s6.12506 9.263294 12.387763 12.387763c3.138233 0 37.066939 3.151997 58.73176 0 6.12506 0 12.387763-9.263294 12.387762-12.387763v-61.938814H309.418786l49.6474-120.629281c6.111296-15.553524 21.678585-27.789881 37.066939-30.941878 6.097532-1.238776 17.893435-2.918006 33.336847-4.70735v-69.357708c-118.399484-2.27109-229.256197-0.220227-361.461154 6.070004l52.620463-130.071509c185.651272-12.387763 247.535029-12.387763 433.365235 0L580.958546 366.127211H611.129631l-35.484059-91.669444s-61.938814-9.263294-120.629281-12.387763a1470.12463 1470.12463 0 0 0-232.146674 0c-61.938814 3.138233-120.629281 12.387763-120.629281 12.387763L40.177644 426.373031 0 463.426206v145.446099l37.066939 40.205172z m-9.263294-163.972686c0-6.12506 6.12506-9.263294 9.263294-9.263294h99.102102c6.12506 0 9.263294 6.111296 9.263294 9.263294l12.387763 61.938814c0 6.290231-6.290231 9.263294-9.428464 9.263293H49.427174c-6.12506 0-9.263294-6.12506-9.263294-9.263293zM429.442443 696.082155v49.15189h16.310554c6.12506 0 9.263294 6.12506 9.263294 9.263294l12.387763 61.938813c2.973063 2.973063-3.317168 9.263294-9.442228 9.263294H429.442443v127.263617a72.578526 72.578526 0 0 1 7.047261-28.90478V915.318028H441.830206l140.394645-223.213721c-49.344588 0.564331-99.570084 1.899457-152.782408 3.977848z" p-id="6292"></path><path d="M436.517232 923.989462a72.578526 72.578526 0 0 0-7.04726 28.90478v8.960481a74.464219 74.464219 0 0 0 4.321952 21.210603 12.621754 12.621754 0 0 0 2.752836-5.877305z" p-id="6293"></path></svg>