<?xml version="1.0" standalone="no"?><!DOCTYPE svg PUBLIC "-//W3C//DTD SVG 1.1//EN" "http://www.w3.org/Graphics/SVG/1.1/DTD/svg11.dtd"><svg t="1597018179083" class="icon" viewBox="0 0 1024 1024" version="1.1" xmlns="http://www.w3.org/2000/svg" p-id="7060" xmlns:xlink="http://www.w3.org/1999/xlink" width="200" height="200"><defs><style type="text/css"></style></defs><path d="M867.413333 148.48H158.293333c-5.546667 0-9.813333 4.266667-9.813333 9.813333v710.826667c0 5.546667 4.266667 9.813333 9.813333 9.813333h701.013334c5.546667 0 9.813333-4.266667 9.813333-9.813333V158.293333c0-5.546667-0.853333-9.813333-1.706667-9.813333z m-326.826666 294.4V633.6c0 5.546667 4.266667 9.813333 9.813333 9.813333h175.36c5.546667 0 9.813333-4.266667 9.813333-9.813333v-19.2c0-5.546667 3.84-7.253333 8.106667-4.266667l79.36 52.906667c4.693333 2.986667 4.693333 8.106667 0 11.093333l-79.36 52.906667c-4.693333 2.986667-8.106667 0.853333-8.106667-4.266667v-15.786666c0-5.546667-4.266667-9.813333-9.813333-9.813334H550.4c-5.546667 0-9.813333 4.266667-9.813333 9.813334v115.2c0 5.546667-4.266667 9.813333-9.813334 9.813333h-33.28c-5.546667 0-9.813333-4.266667-9.813333-9.813333v-115.2c0-5.546667-4.266667-9.813333-9.813333-9.813334H298.666667c-5.546667 0-9.813333 4.266667-9.813334 9.813334v15.786666c0 5.546667-3.84 7.68-8.533333 4.693334l-78.933333-49.92c-4.693333-2.986667-4.693333-7.68 0-10.666667l79.36-52.906667c4.693333-2.986667 8.106667-0.853333 8.106666 4.266667v19.2c0 5.546667 4.266667 9.813333 9.813334 9.813333h179.2c5.546667 0 9.813333-4.266667 9.813333-9.813333V454.4c0-5.546667-4.266667-9.813333-9.813333-9.813333H298.666667c-5.546667 0-9.813333 4.266667-9.813334 9.813333v15.786667c0 5.546667-3.84 7.253333-8.106666 4.266666l-79.36-52.906666c-4.693333-2.986667-4.693333-8.106667 0-11.093334l79.36-52.906666c4.693333-2.986667 8.106667-0.853333 8.106666 4.266666v15.786667c0 5.546667 4.266667 9.813333 9.813334 9.813333h179.2c5.546667 0 9.813333-4.266667 9.813333-9.813333v-79.786667c0-5.546667-4.266667-9.813333-9.813333-9.813333h-19.2c-5.546667 0-7.253333-3.84-4.266667-8.106667l52.906667-79.36c2.986667-4.693333 8.106667-4.693333 11.093333 0l52.906667 79.36c2.986667 4.693333 0.853333 8.106667-4.266667 8.106667H550.4c-5.546667 0-9.813333 4.266667-9.813333 9.813333V377.6c0 5.546667 4.266667 9.813333 9.813333 9.813333h175.36c5.546667 0 9.813333-4.266667 9.813333-9.813333v-15.786667c0-5.546667 3.84-7.253333 8.106667-4.266666l79.36 52.906666c4.693333 2.986667 4.693333 8.106667 0 11.093334l-79.36 52.906666c-4.693333 2.986667-8.106667 0.853333-8.106667-4.266666V454.4c0-5.546667-4.266667-9.813333-9.813333-9.813333H550.4c-5.546667 0-9.813333-0.853333-9.813333-1.706667zM78.08 68.266667c-5.546667 0-9.813333 4.266667-9.813333 9.813333v867.84c0 5.546667 4.266667 9.813333 9.813333 9.813333h867.84c5.546667 0 9.813333-4.266667 9.813333-9.813333V78.08c0-5.546667-4.266667-9.813333-9.813333-9.813333H78.08z m835.84 839.253333c0 5.546667-4.266667 9.813333-9.813333 9.813333H116.48c-5.546667 0-9.813333-4.266667-9.813333-9.813333V116.48c0-5.546667 4.266667-9.813333 9.813333-9.813333h787.626667c5.546667 0 9.813333 4.266667 9.813333 9.813333v791.04z m3.413333 9.813333" fill="" p-id="7061"></path></svg>