<?xml version="1.0" standalone="no"?><!DOCTYPE svg PUBLIC "-//W3C//DTD SVG 1.1//EN" "http://www.w3.org/Graphics/SVG/1.1/DTD/svg11.dtd"><svg t="1597568984648" class="icon" viewBox="0 0 1024 1024" version="1.1" xmlns="http://www.w3.org/2000/svg" p-id="2682" xmlns:xlink="http://www.w3.org/1999/xlink" width="32" height="32"><defs><style type="text/css"></style></defs><path d="M99.538824 1023.578353c-37.948235 0-68.848941-30.840471-68.848942-68.848941 0-2.770824 0.301176-5.601882 1.024-8.372706l68.065883-271.36a68.969412 68.969412 0 0 1 68.547764-63.909647h68.848942a34.334118 34.334118 0 1 1 0 68.848941H168.327529a32.045176 32.045176 0 0 1-1.084235 8.432941L100.562824 954.729412H924.581647l-66.800941-266.420706a36.623059 36.623059 0 0 1-1.084235-8.432941h-68.668236a34.334118 34.334118 0 1 1 0-68.788706h68.788706c36.261647 0 66.138353 28.190118 68.668235 63.849412l67.945412 271.540705c0.602353 2.650353 1.084235 5.601882 1.084236 8.432942 0 37.827765-30.900706 68.668235-68.848942 68.668235H99.478588z m417.370352-191.427765a34.575059 34.575059 0 0 1-17.347764-4.638117c-59.211294-34.394353-127.759059-110.230588-183.235765-202.63153a780.950588 780.950588 0 0 1-65.957647-137.697882c-17.769412-50.236235-26.804706-96.135529-26.804706-136.613647 0-83.425882 28.732235-160.888471 80.715294-217.931294 53.850353-59.030588 128.903529-91.557647 211.425883-91.557647 42.104471 0 81.679059 8.312471 117.820235 24.69647 34.695529 15.661176 65.295059 38.369882 90.895059 67.46353 49.694118 56.440471 77.101176 133.541647 77.101176 217.328941 0 164.562824-139.806118 386.710588-264.734117 475.316706a34.334118 34.334118 0 0 1-19.877648 6.26447z m218.352942-481.581176c0-68.065882-21.865412-129.505882-60.596706-173.537883a201.065412 201.065412 0 0 0-68.48753-50.898823 217.389176 217.389176 0 0 0-90.473411-18.733177c-64.030118 0-121.313882 24.756706-162.454589 69.872942-40.658824 44.574118-63.427765 106.014118-63.427764 173.296941 0 32.286118 7.589647 70.896941 23.009882 114.447059 14.275765 40.357647 35.177412 83.968 60.235294 125.711058 44.453647 74.029176 97.520941 135.529412 142.516706 168.176942C627.320471 668.611765 735.262118 476.461176 735.262118 350.569412zM512.572235 453.571765c-66.379294 0-120.470588-54.091294-120.470588-120.470589 0-66.379294 54.091294-120.470588 120.470588-120.470588 66.379294 0 120.470588 54.091294 120.470589 120.470588 0 66.379294-54.091294 120.470588-120.470589 120.470589z m0-48.188236c39.755294 0 72.282353-32.527059 72.282353-72.282353 0-39.755294-32.527059-72.282353-72.282353-72.282352-39.755294 0-72.282353 32.527059-72.282353 72.282352 0 39.755294 32.527059 72.282353 72.282353 72.282353z" p-id="2683"></path></svg>