<?xml version="1.0" standalone="no"?><!DOCTYPE svg PUBLIC "-//W3C//DTD SVG 1.1//EN" "http://www.w3.org/Graphics/SVG/1.1/DTD/svg11.dtd"><svg t="1597018597394" class="icon" viewBox="0 0 1024 1024" version="1.1" xmlns="http://www.w3.org/2000/svg" p-id="9338" xmlns:xlink="http://www.w3.org/1999/xlink" width="200" height="200"><defs><style type="text/css"></style></defs><path d="M853.724564 135.786986c-25.640628-6.319873-70.240875-25.640628-70.240875-25.640627-44.780815-19.140187-159.621936-102.201375-191.582437-108.521249H432.098748C393.637806 14.445424 317.077059 91.18674 253.156057 110.326926c-57.420561 12.820314-83.061189 19.140187-83.061188 19.140187-12.820314 12.820314 6.319873 44.780815 25.640627 63.921002 12.820314 12.820314 63.921002 31.960501 63.921002 31.960501v19.140187H489.519309V269.948863H259.47593v19.140187H757.662493v-51.100688s31.960501-12.820314 57.420561-25.640628c44.961382-25.46006 57.781696-76.560748 38.64151-76.560748z m-306.784694-6.319873l-31.960501-12.820313L483.199436 135.786986l6.319873-31.9605-25.640628-25.640628 31.960501-6.319873 12.820314-31.960501 19.140187 31.960501 38.280373 6.319873-25.640627 19.140187 6.500441 32.141068zM272.296244 327.369423C285.116558 595.693176 393.637806 697.894551 393.637806 697.894551h230.043379c102.201375-102.201375 127.842003-370.525128 127.842003-370.525128-0.180568-6.319873-479.226944 0-479.226944 0z m325.744313 332.244754h-178.762123s-83.061189-95.881502-83.061188-255.503438l25.640627 6.319873 6.319873 70.240875H483.199436l19.140187-38.280374h31.9605l12.820314 38.280374H649.321813l25.640627-76.741316 12.820314-6.319873c-0.180568 0.180568-6.681009 166.122377-89.742197 262.003879zM444.738494 915.117616s12.820314 0 31.960501-57.420561c12.820314-31.960501 12.820314-63.921002 12.820314-63.921001H457.558808L483.199436 736.355493h63.921001l25.640628 51.100688h-31.960501s-6.319873 95.881502 38.280374 115.021689c0 0 31.960501 38.280374 102.201376-172.44225h31.9605s127.842003 102.201375 178.942691 115.021689v178.942691h-798.470816v-166.122377s102.201375-25.640628 198.082878-115.021689H330.07794c6.139305-0.180568 57.239993 172.261682 114.660554 172.261682z" p-id="9339"></path></svg>