<?xml version="1.0" standalone="no"?><!DOCTYPE svg PUBLIC "-//W3C//DTD SVG 1.1//EN" "http://www.w3.org/Graphics/SVG/1.1/DTD/svg11.dtd"><svg t="1597018659004" class="icon" viewBox="0 0 1024 1024" version="1.1" xmlns="http://www.w3.org/2000/svg" p-id="10382" xmlns:xlink="http://www.w3.org/1999/xlink" width="200" height="200"><defs><style type="text/css"></style></defs><path d="M718.506667 169.813333H607.146667V106.666667h111.36c17.493333 0 31.573333 14.08 31.573333 31.573333v0.426667c0 17.066667-14.08 31.146667-31.573333 31.146666zM559.786667 106.666667H464.213333v63.146666h95.146667V106.666667z m395.946666 342.186666v20.053334c0 12.8-10.24 23.04-23.04 23.04l-30.72 5.12c9.813333 19.626667 15.786667 41.386667 15.786667 67.413333l11.52 132.693333c0 3.84-0.426667 7.68-0.853333 11.52 0.426667 2.56 0.853333 5.12 0.853333 7.68v159.573334c0 22.613333-18.346667 40.96-41.386667 40.96h-63.146666c-22.613333 0-41.386667-18.346667-41.386667-40.96v-51.2h-541.866667v51.2c0 22.613333-18.346667 40.96-41.386666 40.96h-63.146667c-22.613333 0-41.386667-18.346667-41.386667-40.96v-159.573334c0-2.56 0.426667-5.12 0.853334-7.68-0.426667-3.84-0.853333-7.68-0.853334-11.52l11.52-132.693333c0-25.6 5.546667-47.786667 15.786667-67.413333l-31.573333-5.546667c-12.8 0-23.04-10.24-23.04-23.04v-20.053333c0-12.8 10.24-23.04 23.04-23.04h83.2c4.266667 0 8.106667 1.28 11.52 3.413333l37.546666-113.066667C233.813333 262.4 272.64 221.013333 336.213333 221.013333h352c55.466667 0 100.693333 30.72 112.64 94.72l37.546667 112.64c3.413333-1.706667 6.826667-2.986667 10.666667-2.986666h83.2c13.226667 0.426667 23.466667 10.666667 23.466666 23.466666z m-704.426666-46.933333l-10.24 40.533333c2.133333 29.866667 38.4 53.333333 68.266666 53.333334h406.186667c29.866667 0 65.706667-23.466667 68.266667-53.333334l-10.24-40.533333-28.16-74.666667c-2.56-14.08-8.106667-17.066667-17.493334-28.586666H297.386667c-8.96 11.52-15.36 14.08-17.92 28.586666l-0.426667 1.706667-27.733333 72.96z m81.92 285.013333c0-34.56-28.16-62.293333-62.72-62.293333s-62.72 27.733333-62.72 62.293333 28.16 62.293333 62.72 62.293334 62.72-28.16 62.72-62.293334z m286.72-35.84c0-10.24-8.533333-18.346667-18.773334-18.346666H425.813333c-10.24 0-18.773333 8.106667-18.773333 18.346666v52.053334c0 10.24 8.533333 18.346667 18.773333 18.346666H601.6c10.24 0 18.773333-8.106667 18.773333-18.346666v-52.053334z m196.693333 35.84c0-34.56-28.16-62.293333-62.72-62.293333s-62.72 27.733333-62.72 62.293333 28.16 62.293333 62.72 62.293334 62.72-28.16 62.72-62.293334zM305.066667 169.813333h111.36V106.666667h-110.933334c-17.493333 0-31.573333 14.08-31.573333 31.573333v0.426667c0 17.066667 14.08 31.146667 31.146667 31.146666z" fill="" p-id="10383"></path></svg>