<?xml version="1.0" standalone="no"?><!DOCTYPE svg PUBLIC "-//W3C//DTD SVG 1.1//EN" "http://www.w3.org/Graphics/SVG/1.1/DTD/svg11.dtd"><svg t="1596974186532" class="icon" viewBox="0 0 1170 1024" version="1.1" xmlns="http://www.w3.org/2000/svg" p-id="3116" xmlns:xlink="http://www.w3.org/1999/xlink" width="228.515625" height="200"><defs><style type="text/css"></style></defs><path d="M854.893714 0h-531.748571l-76.8 268.873143a303.689143 303.689143 0 0 1-115.712 584.411428c-16.969143 0-33.426286-1.682286-49.737143-4.388571l-29.330286 102.985143H1126.4L854.893714 0z m-212.845714 879.616H535.917714v-193.097143h106.057143v193.097143z m0-278.820571H535.917714V370.102857h106.057143v230.692572z m0-321.828572H535.917714v-193.097143h106.057143v193.097143zM174.08 511.634286a29.184 29.184 0 1 1 0 58.368 29.184 29.184 0 0 1 0-58.368z m-93.257143 253.074285a120.905143 120.905143 0 0 1 186.441143-0.146285 26.550857 26.550857 0 0 0 40.886857-33.792c-13.385143-16.091429-29.257143-29.257143-46.884571-39.497143a174.153143 174.153143 0 0 0 87.04-150.601143 174.226286 174.226286 0 0 0-174.08-174.08A174.445714 174.445714 0 0 0 0 540.672c0 64.292571 35.108571 120.466286 87.113143 150.674286-17.554286 10.166857-33.645714 23.405714-47.030857 39.497143a26.550857 26.550857 0 0 0 40.740571 33.865142z m2.925714-224.036571c0-49.737143 40.448-90.331429 90.331429-90.331429 49.810286 0 90.404571 40.448 90.404571 90.331429a90.477714 90.477714 0 0 1-180.809142 0z" p-id="3117"></path></svg>