<?xml version="1.0" standalone="no"?><!DOCTYPE svg PUBLIC "-//W3C//DTD SVG 1.1//EN" "http://www.w3.org/Graphics/SVG/1.1/DTD/svg11.dtd"><svg t="1596974141061" class="icon" viewBox="0 0 1024 1024" version="1.1" xmlns="http://www.w3.org/2000/svg" p-id="2214" xmlns:xlink="http://www.w3.org/1999/xlink" width="200" height="200"><defs><style type="text/css"></style></defs><path d="M936.533333 573.866667h-12.8c-12.8 0-38.4 0-59.733333-6.4-32-6.4-66.133333-38.4-72.533333-53.333334-6.4-6.4-12.8-6.4-19.2-6.4-6.4 0-12.8 0-19.2 6.4 0 0-38.4 38.4-72.533334 53.333334-19.2 6.4-44.8 6.4-59.733333 6.4h-12.8c-6.4 0-12.8 0-19.2 6.4-6.4 6.4-6.4 12.8-6.4 19.2v78.933333c0 281.6 183.466667 320 189.866667 320h12.8c6.4 0 189.866667-38.4 189.866666-320v-78.933333c0-6.4-6.4-19.2-6.4-19.2-12.8-6.4-25.6-6.4-32-6.4z m-110.933333 209.066666l25.6 85.333334-78.933333-53.333334-85.333334 59.733334 25.6-85.333334-78.933333-53.333333h98.133333l32-85.333333 32 85.333333h98.133334l-68.266667 46.933333z m-281.6-136.533333L87.466667 352l-66.133334 64 522.666667 320v-89.6z m0 0" p-id="2215"></path><path d="M243.2 25.6H151.466667l-123.733334 196.266667v66.133333l516.266667 313.6v-38.4c0-12.8 6.4-19.2 12.8-25.6 6.4-6.4 12.8-12.8 25.6-12.8h14.933333c12.8 0 44.8 0 78.933334-6.4 44.8-12.8 91.733333-59.733333 91.733333-59.733333 6.4-6.4 12.8-6.4 19.2-6.4 6.4 0 12.8 0 19.2 6.4 12.8 6.4 59.733333 53.333333 91.733333 59.733333 25.6 6.4 59.733333 6.4 78.933334 6.4H1002.666667L243.2 25.6z m-25.6 646.4l-98.133333 6.4v-130.133333L21.333333 514.133333v458.666667l98.133334-32v-164.266667l157.866666-6.4 72.533334-91.733333-98.133334-66.133333-34.133333 59.733333z m0 0" p-id="2216"></path></svg>